<?xml version="1.0" encoding="UTF-8" standalone="no"?>
<!DOCTYPE svg PUBLIC "-//W3C//DTD SVG 1.1//EN" "http://www.w3.org/Graphics/SVG/1.1/DTD/svg11.dtd">
<svg width="100%" height="100%" viewBox="0 0 10158 9245" version="1.1" xmlns="http://www.w3.org/2000/svg" xmlns:xlink="http://www.w3.org/1999/xlink" xml:space="preserve" xmlns:serif="http://www.serif.com/" style="fill-rule:evenodd;clip-rule:evenodd;stroke-linejoin:round;stroke-miterlimit:2;">
    <g transform="matrix(13.8889,0,0,13.8889,-1955.28,-1955.28)">
        <g id="Terminal-Prompt" serif:id="Terminal Prompt" transform="matrix(1.02032,0,0,1.02032,-2.51265,2.12171)">
            <g id="Cheveron" transform="matrix(0.864238,0,0,0.864238,12.8865,11.9819)">
                <path d="M173.387,265.081C159.486,251.164 147.59,232.721 147.59,211.109C147.59,173.686 178.055,143.036 215.477,143.384C247.556,143.683 255.504,156.189 269.754,169.984C306.919,205.961 435.026,332.168 456.209,353.323C471.676,368.771 485.678,386.141 485.678,409.5C485.678,431.363 476.046,445.348 459.363,462.136C421.255,500.484 262.417,661.752 262.417,661.752C262.237,661.935 262.052,662.114 261.864,662.289C249.802,673.494 233.061,680.158 215.316,680.158C177.937,680.158 147.59,649.811 147.59,612.432C147.59,594.629 154.472,578.421 165.719,566.326C165.845,566.191 165.973,566.058 166.103,565.927L319.939,410.753C287.6,378.669 200.889,292.617 173.387,265.081ZM197.947,240.55C231.974,274.618 356.702,398.328 356.702,398.328C363.507,405.077 363.553,416.064 356.806,422.87L190.955,590.165C185.583,596.037 182.302,603.854 182.302,612.432C182.302,630.652 197.095,645.445 215.316,645.445C223.901,645.445 232.075,642.447 237.988,637.086C245.675,629.282 397.579,475.063 434.74,437.668C443.955,428.394 450.965,421.576 450.965,409.5C450.965,395.863 440.709,386.903 431.679,377.885C410.54,356.773 282.698,230.827 245.61,194.924C237.407,186.983 233.621,178.267 215.154,178.095C196.979,177.926 182.302,192.933 182.302,211.109C182.302,223.154 190.2,232.794 197.947,240.55Z"/>
            </g>
            <g id="Underscore" transform="matrix(1.09564,0,0,0.97561,-43.5534,15.4437)">
                <path d="M294.313,588.898C294.311,588.791 294.311,588.683 294.311,588.575C294.311,588.572 294.311,588.569 294.311,588.565L294.313,588.898ZM580.208,588.565L580.208,588.895C580.208,616.92 559.947,639.673 534.993,639.673L339.526,639.673C314.571,639.673 294.311,616.92 294.311,588.895L294.313,588.898C294.503,601.287 294.329,585.609 294.311,588.565C294.311,560.54 314.571,537.788 339.526,537.788L534.993,537.788C559.947,537.788 580.208,560.54 580.208,588.565ZM321.692,588.565C321.692,588.569 321.691,588.791 321.689,588.899L321.692,588.895C321.692,599.949 329.683,608.923 339.526,608.923L534.993,608.923C544.835,608.923 552.826,599.949 552.826,588.895L552.829,588.898C552.885,592.57 552.89,592.087 552.829,588.899C552.829,588.899 552.848,585.241 552.826,588.565C552.826,577.512 544.835,568.538 534.993,568.538L339.526,568.538C329.683,568.538 321.692,577.512 321.692,588.565ZM552.829,588.898C552.827,588.791 552.826,588.683 552.826,588.575C552.826,588.683 552.829,588.898 552.829,588.898Z"/>
            </g>
        </g>
        <g id="Servers" transform="matrix(1.02032,0,0,1.02032,-2.51265,2.12171)">
            <g id="Drives">
                <g id="Drive-03" serif:id="Drive 03" transform="matrix(0.96464,2.71789e-05,2.71789e-05,1,24.0619,425.114)">
                    <path d="M607.99,280.733C599.54,280.74 592.675,274.127 592.668,265.976C592.662,257.824 599.517,251.201 607.968,251.195L753.395,251.083C761.845,251.077 768.711,257.689 768.717,265.84C768.723,273.992 761.868,280.615 753.418,280.621L607.99,280.733Z"/>
                </g>
                <g id="Drive-02" serif:id="Drive 02" transform="matrix(0.96464,2.71789e-05,2.71789e-05,1,24.0619,214.04)">
                    <path d="M607.99,280.733C599.54,280.74 592.675,274.127 592.668,265.976C592.662,257.824 599.517,251.201 607.968,251.195L753.395,251.083C761.845,251.077 768.711,257.689 768.717,265.84C768.723,273.992 761.868,280.615 753.418,280.621L607.99,280.733Z"/>
                </g>
                <g id="Drive-01" serif:id="Drive 01" transform="matrix(0.96464,2.71789e-05,2.71789e-05,1,24.0619,-0.0184949)">
                    <path d="M607.99,280.733C599.54,280.74 592.675,274.127 592.668,265.976C592.662,257.824 599.517,251.201 607.968,251.195L753.395,251.083C761.845,251.077 768.711,257.689 768.717,265.84C768.723,273.992 761.868,280.615 753.418,280.621L607.99,280.733Z"/>
                </g>
            </g>
            <g id="Lights">
                <g id="Light-06" serif:id="Light 06" transform="matrix(1,0,0,1,74.8195,428.512)">
                    <path d="M424.92,237.606C440.638,237.606 453.398,250.366 453.398,266.084C453.398,281.801 440.638,294.562 424.92,294.562C409.203,294.562 396.442,281.801 396.442,266.084C396.442,250.366 409.203,237.606 424.92,237.606ZM424.92,255.862C419.279,255.862 414.699,260.442 414.699,266.084C414.699,271.725 419.279,276.306 424.92,276.306C430.562,276.306 435.142,271.725 435.142,266.084C435.142,260.442 430.562,255.862 424.92,255.862Z"/>
                </g>
                <g id="Light-05" serif:id="Light 05" transform="matrix(1,0,0,1,-5.68434e-14,428.512)">
                    <path d="M424.92,237.606C440.638,237.606 453.398,250.366 453.398,266.084C453.398,281.801 440.638,294.562 424.92,294.562C409.203,294.562 396.442,281.801 396.442,266.084C396.442,250.366 409.203,237.606 424.92,237.606ZM424.92,255.862C419.279,255.862 414.699,260.442 414.699,266.084C414.699,271.725 419.279,276.306 424.92,276.306C430.562,276.306 435.142,271.725 435.142,266.084C435.142,260.442 430.562,255.862 424.92,255.862Z"/>
                </g>
                <g id="Light-04" serif:id="Light 04" transform="matrix(1,0,0,1,74.8195,214.608)">
                    <path d="M424.92,237.606C440.638,237.606 453.398,250.366 453.398,266.084C453.398,281.801 440.638,294.562 424.92,294.562C409.203,294.562 396.442,281.801 396.442,266.084C396.442,250.366 409.203,237.606 424.92,237.606ZM424.92,255.862C419.279,255.862 414.699,260.442 414.699,266.084C414.699,271.725 419.279,276.306 424.92,276.306C430.562,276.306 435.142,271.725 435.142,266.084C435.142,260.442 430.562,255.862 424.92,255.862Z"/>
                </g>
                <g id="Light-03" serif:id="Light 03" transform="matrix(1,0,0,1,-5.68434e-14,214.608)">
                    <path d="M424.92,237.606C440.638,237.606 453.398,250.366 453.398,266.084C453.398,281.801 440.638,294.562 424.92,294.562C409.203,294.562 396.442,281.801 396.442,266.084C396.442,250.366 409.203,237.606 424.92,237.606ZM424.92,255.862C419.279,255.862 414.699,260.442 414.699,266.084C414.699,271.725 419.279,276.306 424.92,276.306C430.562,276.306 435.142,271.725 435.142,266.084C435.142,260.442 430.562,255.862 424.92,255.862Z"/>
                </g>
                <g id="Light-02" serif:id="Light 02" transform="matrix(1,0,0,1,74.8195,0.234544)">
                    <path d="M424.92,237.606C440.638,237.606 453.398,250.366 453.398,266.084C453.398,281.801 440.638,294.562 424.92,294.562C409.203,294.562 396.442,281.801 396.442,266.084C396.442,250.366 409.203,237.606 424.92,237.606ZM424.92,255.862C419.279,255.862 414.699,260.442 414.699,266.084C414.699,271.725 419.279,276.306 424.92,276.306C430.562,276.306 435.142,271.725 435.142,266.084C435.142,260.442 430.562,255.862 424.92,255.862Z"/>
                </g>
                <g id="Light-01" serif:id="Light 01" transform="matrix(1,0,0,1,-5.68434e-14,0.234544)">
                    <path d="M424.92,237.606C440.638,237.606 453.398,250.366 453.398,266.084C453.398,281.801 440.638,294.562 424.92,294.562C409.203,294.562 396.442,281.801 396.442,266.084C396.442,250.366 409.203,237.606 424.92,237.606ZM424.92,255.862C419.279,255.862 414.699,260.442 414.699,266.084C414.699,271.725 419.279,276.306 424.92,276.306C430.562,276.306 435.142,271.725 435.142,266.084C435.142,260.442 430.562,255.862 424.92,255.862Z"/>
                </g>
            </g>
            <path id="Server-Body" serif:id="Server Body" d="M611.207,597.782L776.253,597.782L776.253,576.079L610.307,576.079C608.067,564.863 603.106,554.623 596.141,546.079L810.233,546.079C819.59,546.079 827.186,538.483 827.186,529.126L827.186,432.595C827.186,423.239 819.59,415.642 810.233,415.642L432.512,415.642C440.799,405.976 446.533,396.528 449.571,385.642L776.253,385.642L776.253,361.275L451.961,361.275C451.217,350.24 447.833,340.333 442.794,331.275L810.233,331.275C819.59,331.275 827.186,323.678 827.186,314.322L827.186,217.791C827.186,208.434 819.59,200.837 810.233,200.837L316.765,200.837C308.317,192.539 300.145,184.52 292.599,177.126C299.507,173.127 307.525,170.837 316.073,170.837L810.233,170.837C836.147,170.837 857.186,191.876 857.186,217.791L857.186,314.322C857.186,340.236 836.147,361.275 810.233,361.275L805.791,361.275L805.791,385.642L810.233,385.642C836.147,385.642 857.186,406.681 857.186,432.595L857.186,529.126C857.186,555.04 836.147,576.079 810.233,576.079L805.791,576.079L805.791,597.782L810.233,597.782C836.147,597.782 857.186,618.821 857.186,644.735L857.186,741.266C857.186,767.18 836.147,788.219 810.233,788.219L316.073,788.219C290.159,788.219 269.12,767.18 269.12,741.266L269.12,644.735C269.12,639.334 270.034,634.145 271.715,629.314C278.623,639.251 288.073,647.29 299.12,652.487L299.12,741.266C299.12,750.623 306.717,758.219 316.073,758.219L810.233,758.219C819.59,758.219 827.186,750.623 827.186,741.266L827.186,644.735C827.186,635.378 819.59,627.782 810.233,627.782L600.368,627.782C606.148,618.973 609.968,608.766 611.207,597.782Z"/>
        </g>
    </g>
</svg>
