<?xml version="1.0" encoding="UTF-8" standalone="no"?>
<!DOCTYPE svg PUBLIC "-//W3C//DTD SVG 1.1//EN" "http://www.w3.org/Graphics/SVG/1.1/DTD/svg11.dtd">
<svg width="100%" height="100%" viewBox="0 0 128983 17411" version="1.1" xmlns="http://www.w3.org/2000/svg" xmlns:xlink="http://www.w3.org/1999/xlink" xml:space="preserve" xmlns:serif="http://www.serif.com/" style="fill-rule:evenodd;clip-rule:evenodd;stroke-linejoin:round;stroke-miterlimit:2;">
    <g transform="matrix(5.55556,0,0,5.55556,-73889.7,-46893.3)">
        <g id="CodePark.ca" transform="matrix(1.32381,0,0,1.38587,-3996.46,-3747.94)">
            <g id="_.ca" serif:id=".ca" transform="matrix(1,0,0,1,-1441.3,0)">
                <g transform="matrix(1,0,0,1,-62.6979,0)">
                    <path d="M28669.5,11043.8C28587.6,11043.8 28518.3,11016.3 28461.7,10961.4C28405,10906.5 28376.6,10836.5 28376.6,10751.5C28376.6,10664.5 28405,10594.4 28461.7,10541.3C28518.3,10488.2 28587.6,10461.6 28669.5,10461.6C28750.1,10461.6 28818.7,10488.2 28875.4,10541.3C28932.1,10594.4 28960.5,10664.5 28960.5,10751.5C28960.5,10836.5 28932.1,10906.5 28875.4,10961.4C28818.7,11016.3 28750.1,11043.8 28669.5,11043.8Z" style="fill-rule:nonzero;"/>
                </g>
                <g transform="matrix(1,0,0,1,-292.338,0)">
                    <path d="M30035.8,11043.8C29862.3,11043.8 29707.6,11008.4 29571.9,10937.6C29436.2,10866.8 29329.8,10768.7 29252.9,10643.3C29175.9,10517.9 29137.4,10374.6 29137.4,10213.5C29137.4,10051.1 29175.9,9907.73 29252.9,9783.36C29329.8,9658.98 29436.2,9561.41 29571.9,9490.62C29707.6,9419.81 29862.3,9384.41 30035.8,9384.41C30205.6,9384.41 30353.7,9419.56 30480,9489.88C30606.3,9560.19 30698.9,9661.08 30757.7,9792.55L30397.5,9989C30353.8,9913 30300.5,9857.09 30237.7,9821.28C30174.8,9785.47 30106.5,9767.56 30032.8,9767.56C29953.8,9767.56 29882.3,9785.3 29818.2,9820.77C29754,9856.23 29703.5,9907.12 29666.4,9973.44C29629.3,10039.8 29610.8,10119.8 29610.8,10213.5C29610.8,10307.2 29629.3,10387.4 29666.4,10454.1C29703.5,10520.8 29754,10571.9 29818.2,10607.4C29882.3,10642.8 29953.8,10660.6 30032.8,10660.6C30106.5,10660.6 30174.8,10643 30237.7,10607.8C30300.5,10572.6 30353.8,10516.4 30397.5,10439.1L30757.7,10635.6C30698.9,10765.9 30606.3,10866.5 30480,10937.4C30353.7,11008.3 30205.6,11043.8 30035.8,11043.8Z" style="fill-rule:nonzero;"/>
                </g>
                <g transform="matrix(1,0,0,1,-412.446,0)">
                    <path d="M32017.5,11021L32017.5,10706.5L31989.5,10635.7L31989.5,10072.9C31989.5,9972.33 31958.9,9894.44 31897.8,9839.19C31836.8,9783.91 31742.8,9756.27 31615.9,9756.27C31531,9756.27 31447,9769.58 31363.7,9796.2C31280.5,9822.8 31209.5,9859.11 31150.6,9905.14L30983.5,9579.45C31072.3,9515.83 31178.5,9467.42 31302.3,9434.23C31426,9401.02 31551.9,9384.41 31679.9,9384.41C31926.9,9384.41 32118.2,9442.28 32253.9,9558.03C32389.6,9673.75 32457.5,9854.12 32457.5,10099.2L32457.5,11021L32017.5,11021ZM31527.2,11043.8C31401.7,11043.8 31293.9,11022.6 31203.9,10980.2C31113.9,10937.8 31045,10879.6 30997.2,10805.7C30949.4,10731.7 30925.5,10648.3 30925.5,10555.5C30925.5,10460.4 30948.8,10376.7 30995.6,10304.5C31042.3,10232.3 31116.7,10175.7 31218.6,10134.7C31320.6,10093.7 31453.5,10073.1 31617.5,10073.1L32044.6,10073.1L32044.6,10345.9L31669.4,10345.9C31558.8,10345.9 31483,10363.7 31442.2,10399.4C31401.4,10435 31380.9,10480.7 31380.9,10536.4C31380.9,10594.9 31404.2,10641.8 31450.7,10677C31497.2,10712.3 31561.1,10729.9 31642.5,10729.9C31721.1,10729.9 31791.7,10711.7 31854.2,10675.2C31916.7,10638.7 31961.8,10583.8 31989.5,10510.5L32060.2,10727.8C32026.9,10830.5 31965.3,10908.9 31875.2,10962.8C31785.2,11016.8 31669.2,11043.8 31527.2,11043.8Z" style="fill-rule:nonzero;"/>
                </g>
            </g>
            <g id="CodePark">
                <path d="M14203.2,11056.3C14040,11056.3 13889,11029.8 13750.3,10976.8C13611.5,10923.8 13491.1,10848.6 13389.1,10751.2C13287.1,10653.8 13207.8,10539 13151,10406.8C13094.2,10274.7 13065.8,10129.4 13065.8,9971C13065.8,9812.62 13094.2,9667.34 13151,9535.16C13207.8,9402.97 13287.4,9288.17 13390,9190.77C13492.6,9093.36 13613.3,9018.16 13752,8965.16C13890.8,8912.16 14041.8,8885.66 14205,8885.66C14386.9,8885.66 14551.6,8917.14 14699.1,8980.11C14846.6,9043.05 14970,9135.28 15069.1,9256.81L14757.9,9545.38C14686.3,9463.75 14606.3,9402.05 14518,9360.27C14429.8,9318.45 14333.2,9297.55 14228.3,9297.55C14130.2,9297.55 14040.2,9313.78 13958.5,9346.25C13876.8,9378.69 13806,9424.84 13746.1,9484.72C13686.2,9544.59 13639.8,9615.78 13606.7,9698.28C13573.6,9780.78 13557.1,9871.69 13557.1,9971C13557.1,10070.3 13573.6,10161.2 13606.7,10243.7C13639.8,10326.2 13686.2,10397.4 13746.1,10457.3C13806,10517.2 13876.8,10563.3 13958.5,10595.8C14040.2,10628.2 14130.2,10644.5 14228.3,10644.5C14333.2,10644.5 14429.8,10623.6 14518,10581.8C14606.3,10540 14686.3,10477.6 14757.9,10394.8L15069.1,10683.4C14970,10804.1 14846.6,10896.5 14699.1,10960.4C14551.6,11024.4 14386.3,11056.3 14203.2,11056.3Z" style="fill-rule:nonzero;"/>
                <g transform="matrix(1,0,0,1,-109.532,0)">
                    <path d="M16045.6,11043.8C15874.6,11043.8 15722.6,11008.2 15589.6,10937C15456.6,10865.8 15351.8,10767.6 15275.2,10642.4C15198.7,10517.2 15160.4,10374.1 15160.4,10213.2C15160.4,10051 15198.8,9907.7 15275.6,9783.27C15352.4,9658.83 15457,9561.25 15589.5,9490.53C15722.1,9419.78 15874.1,9384.41 16045.6,9384.41C16217.1,9384.41 16369.7,9419.73 16503.2,9490.39C16636.8,9561.05 16741.5,9658.53 16817.2,9782.84C16893,9907.12 16930.8,10050.6 16930.8,10213.2C16930.8,10374.5 16893,10517.7 16817.4,10642.7C16741.9,10767.7 16637.1,10865.8 16503,10937C16369,11008.2 16216.5,11043.8 16045.6,11043.8ZM16045.6,10660.6C16124.6,10660.6 16194.9,10642.8 16256.6,10607.4C16318.3,10571.9 16367.2,10520.3 16403.3,10452.6C16439.4,10384.9 16457.4,10305.1 16457.4,10213.2C16457.4,10119.7 16439.4,10039.8 16403.3,9973.44C16367.2,9907.12 16318.3,9856.23 16256.6,9820.77C16194.9,9785.3 16124.9,9767.56 16046.5,9767.56C15968.2,9767.56 15898.1,9785.3 15836.4,9820.77C15774.7,9856.23 15725.5,9907.12 15688.8,9973.44C15652.1,10039.8 15633.8,10119.7 15633.8,10213.2C15633.8,10305.1 15652.1,10384.9 15688.8,10452.6C15725.5,10520.3 15774.6,10571.9 15836.2,10607.4C15897.9,10642.8 15967.7,10660.6 16045.6,10660.6Z" style="fill-rule:nonzero;"/>
                </g>
                <g transform="matrix(1,0,0,1,-250.792,0)">
                    <path d="M17936,11043.8C17785.6,11043.8 17649.2,11009.6 17527,10941.2C17404.8,10872.8 17308.3,10776.6 17237.5,10652.6C17166.8,10528.6 17131.4,10382.2 17131.4,10213.5C17131.4,10044.7 17166.8,9898.38 17237.5,9774.41C17308.3,9650.41 17404.8,9554.41 17527,9486.41C17649.2,9418.41 17785.6,9384.41 17936,9384.41C18072.8,9384.41 18192,9414.31 18293.6,9474.12C18395.3,9533.91 18474.4,9624.78 18531.1,9746.75C18587.8,9868.72 18616.1,10024.3 18616.1,10213.5C18616.1,10402.2 18589,10558.1 18534.7,10681.1C18480.5,10804.1 18402.7,10895.3 18301.4,10954.7C18200.2,11014.1 18078.4,11043.8 17936,11043.8ZM18016.5,10660.6C18094.3,10660.6 18164,10642.8 18225.8,10607.4C18287.5,10571.9 18336.7,10520.3 18373.4,10452.6C18410,10384.9 18428.4,10305.2 18428.4,10213.5C18428.4,10119.8 18410,10039.8 18373.4,9973.44C18336.7,9907.12 18287.5,9856.23 18225.8,9820.77C18164,9785.3 18094.3,9767.56 18016.5,9767.56C17938.8,9767.56 17869.1,9785.3 17807.3,9820.77C17745.6,9856.23 17696.4,9907.12 17659.7,9973.44C17623.1,10039.8 17604.8,10119.8 17604.8,10213.5C17604.8,10305.2 17623.1,10384.9 17659.7,10452.6C17696.4,10520.3 17745.6,10571.9 17807.3,10607.4C17869.1,10642.8 17938.8,10660.6 18016.5,10660.6ZM18442.1,11021L18442.1,10690.4L18450,10211.7L18420,9732.97L18420,8795L18888,8795L18888,11021L18442.1,11021Z" style="fill-rule:nonzero;"/>
                </g>
                <g transform="matrix(1,0,0,1,-501.583,0)">
                    <path d="M20120.2,11043.8C19935.8,11043.8 19774.6,11008 19636.5,10936.4C19498.4,10864.8 19391.3,10766.3 19315.4,10640.9C19239.4,10515.6 19201.4,10373.1 19201.4,10213.5C19201.4,10052.3 19238.6,9909.22 19312.9,9784.25C19387.3,9659.28 19489.5,9561.41 19619.7,9490.62C19749.8,9419.81 19896.9,9384.41 20060.8,9384.41C20219.2,9384.41 20361.7,9417.92 20488.5,9484.95C20615.2,9551.95 20715.5,9647.86 20789.5,9772.67C20863.5,9897.45 20900.4,10046.8 20900.4,10220.7C20900.4,10238.7 20899.7,10259.1 20898.3,10282.1C20897,10305.1 20895.3,10326.2 20893.3,10345.3L19581.4,10345.3L19581.4,10072.6L20645.5,10072.6L20464.7,10154.2C20465.9,10070.9 20449.3,9997.98 20414.8,9935.52C20380.3,9873.02 20333.2,9824.14 20273.2,9788.89C20213.3,9753.61 20143.3,9735.97 20063.2,9735.97C19983,9735.97 19912.5,9753.61 19851.6,9788.89C19790.7,9824.14 19743.5,9873.31 19710,9936.41C19676.6,9999.5 19659.8,10073.9 19659.8,10159.6L19659.8,10232.7C19659.8,10320.8 19679.3,10398 19718.1,10464.3C19757,10530.5 19812.1,10581.6 19883.4,10617.5C19954.7,10653.3 20038.2,10671.3 20133.9,10671.3C20219.6,10671.3 20294.8,10658.2 20359.5,10632.2C20424.1,10606.2 20484.1,10566.5 20539.3,10513.2L20788.3,10783.4C20713.1,10868.2 20619.8,10932.8 20508.2,10977.2C20396.6,11021.6 20267.3,11043.8 20120.2,11043.8Z" style="fill-rule:nonzero;"/>
                </g>
                <g transform="matrix(1,0,0,1,-783.346,0)">
                    <path d="M21245.9,11021L21245.9,8921L22153.6,8921C22342.4,8921 22505,8951.5 22641.3,9012.5C22777.7,9073.47 22882.8,9161.05 22956.6,9275.23C23030.3,9389.39 23067.2,9525.05 23067.2,9682.2C23067.2,9838.17 23030.3,9973.05 22956.6,10086.8C22882.8,10200.6 22777.7,10288.2 22641.3,10349.6C22505,10410.9 22342.4,10441.6 22153.6,10441.6L21515.8,10441.6L21733,10223.7L21733,11021L21245.9,11021ZM21733,10276.4L21515.8,10045.9L22128.6,10045.9C22277.2,10045.9 22389,10014 22463.7,9950.05C22538.5,9886.11 22575.9,9796.83 22575.9,9682.2C22575.9,9566.39 22538.5,9476.53 22463.7,9412.62C22389,9348.72 22277.2,9316.77 22128.6,9316.77L21515.8,9316.77L21733,9086.28L21733,10276.4Z" style="fill-rule:nonzero;"/>
                </g>
                <g transform="matrix(1,0,0,1,-971.44,0)">
                    <path d="M24352.5,11021L24352.5,10706.5L24324.5,10635.7L24324.5,10072.9C24324.5,9972.33 24293.9,9894.44 24232.8,9839.19C24171.8,9783.91 24077.8,9756.27 23950.9,9756.27C23866,9756.27 23782,9769.58 23698.7,9796.2C23615.5,9822.8 23544.5,9859.11 23485.6,9905.14L23318.5,9579.45C23407.3,9515.83 23513.5,9467.42 23637.3,9434.23C23761,9401.02 23886.9,9384.41 24014.9,9384.41C24261.9,9384.41 24453.2,9442.28 24588.9,9558.03C24724.6,9673.75 24792.5,9854.12 24792.5,10099.2L24792.5,11021L24352.5,11021ZM23862.2,11043.8C23736.7,11043.8 23628.9,11022.6 23538.9,10980.2C23448.9,10937.8 23380,10879.6 23332.2,10805.7C23284.4,10731.7 23260.5,10648.3 23260.5,10555.5C23260.5,10460.4 23283.8,10376.7 23330.6,10304.5C23377.3,10232.3 23451.7,10175.7 23553.6,10134.7C23655.6,10093.7 23788.5,10073.1 23952.5,10073.1L24379.6,10073.1L24379.6,10345.9L24004.4,10345.9C23893.8,10345.9 23818,10363.7 23777.2,10399.4C23736.4,10435 23715.9,10480.7 23715.9,10536.4C23715.9,10594.9 23739.2,10641.8 23785.7,10677C23832.2,10712.3 23896.1,10729.9 23977.5,10729.9C24056.1,10729.9 24126.7,10711.7 24189.2,10675.2C24251.7,10638.7 24296.8,10583.8 24324.5,10510.5L24395.2,10727.8C24361.9,10830.5 24300.3,10908.9 24210.2,10962.8C24120.2,11016.8 24004.2,11043.8 23862.2,11043.8Z" style="fill-rule:nonzero;"/>
                </g>
                <g transform="matrix(1,0,0,1,-1284.17,0)">
                    <path d="M25216,11021L25216,9407.14L25661.9,9407.14L25661.9,9864.12L25600.3,9732.17C25647.9,9617.45 25724.5,9530.81 25830.3,9472.25C25936.1,9413.69 26065.4,9384.41 26218.2,9384.41L26218.2,9816.03C26197.8,9813.25 26179.5,9811.16 26163.1,9809.75C26146.8,9808.34 26130.2,9807.64 26113.5,9807.64C25983.7,9807.64 25879.7,9844.41 25801.4,9917.94C25723.1,9991.47 25684,10105.3 25684,10259.4L25684,11021L25216,11021Z" style="fill-rule:nonzero;"/>
                </g>
                <g transform="matrix(1,0,0,1,-1466.98,0)">
                    <path d="M26883,10691.3L26894.3,10119.5L27647.8,9407.14L28206.2,9407.14L27481.5,10142.5L27240.3,10341.3L26883,10691.3ZM26497,11021L26497,8795L26965,8795L26965,11021L26497,11021ZM27698.2,11021L27154.1,10344.2L27446.2,9979.62L28265.7,11021L27698.2,11021Z" style="fill-rule:nonzero;"/>
                </g>
            </g>
        </g>
    </g>
</svg>
