<?xml version="1.0" encoding="utf-8" standalone="no"?>
<svg width="100%" height="100%" viewBox="0 0 264 280" version="1.2" xmlns:xlink="http://www.w3.org/1999/xlink" xmlns:serif="http://www.serif.com/" baseProfile="tiny-ps" stroke-miterlimit="2" stroke-linejoin="round" fill-rule="evenodd" xmlns="http://www.w3.org/2000/svg">
  <title>Gravatar_No-BG-exported_cropped-ps</title>
    <g id="Avataaar">
        <g id="Avataaar-Circle">
            <g>
                <g id="Avataaar1">
                    <g id="Body" transform="matrix(1,0,0,1,32,36)">
                        <path id="react-path-3" d="M124,144.611L124,163L128,163C167.765,163 200,195.235 200,235L200,244L0,244L0,235C-0,195.235 32.235,163 72,163L76,163L76,144.611C58.763,136.422 46.372,119.687 44.305,99.881C38.48,99.058 34,94.052 34,88L34,74C34,68.054 38.325,63.118 44,62.166L44,56C44,25.072 69.072,0 100,0C130.928,-0 156,25.072 156,56L156,62.166C161.675,63.118 166,68.054 166,74L166,88C166,94.052 161.52,99.058 155.695,99.881C153.628,119.687 141.237,136.422 124,144.611Z" fill="rgb(238,184,136)" />
                    </g>
                    <g id="Clothing-Hoodie" transform="matrix(1,0,0,1,0,170)">
                        <path id="Hoodie" d="M108,13.071C90.081,15.076 76.28,20.552 76.004,34.645C50.146,45.568 32,71.165 32,100.999L32,110L232,110L232,100.999C232,71.165 213.854,45.568 187.996,34.645C187.72,20.552 173.919,15.076 156,13.071L156,32C156,45.255 145.255,56 132,56C118.745,56 108,45.255 108,32L108,13.071Z" fill="rgb(40,47,51)" />
                        <g id="Color-Palette-Gray-01">
                        </g>
                        <path id="Straps" d="M102,61.739L102,110L95,110L95,58.15C97.204,59.46 99.547,60.661 102,61.739ZM169,58.15L169,98.5C169,100.433 167.433,102 165.5,102C163.567,102 162,100.433 162,98.5L162,61.739C164.453,60.661 166.796,59.46 169,58.15Z" fill="rgb(244,244,244)" />
                        <path id="Shadow" d="M76.004,34.645C72.652,36.096 70.208,37.335 66.9,39.281C73.522,55.648 102.598,68 132,68C161.399,68 190.479,55.648 197.106,39.285C193.344,37.007 191.327,36.137 187.996,34.645C183.811,53.585 159.24,68 132,68C104.783,68 81.816,54.017 76.004,34.645Z" fill-opacity="0.16" />
                    </g>
                    <g id="Face" transform="matrix(1,0,0,1,76,82)">
                        <g id="Mouth-Default" transform="matrix(1,0,0,1,2,52)">
                            <path id="Mouth" d="M40,15C40,22.732 46.268,29 54,29C61.732,29 68,22.732 68,15" fill-opacity="0.7" />
                        </g>
                        <g id="Nose-Default" transform="matrix(1,0,0,1,28,40)">
                            <path id="Nose" d="M16,8C16,12.418 21.373,16 28,16C34.627,16 40,12.418 40,8" fill-opacity="0.16" />
                        </g>
                        <g id="Eyes-Default-😀" transform="matrix(1,0,0,1,0,8)">
                            <circle id="Eye" cx="30" cy="22" r="6" fill-opacity="0.6" />
                            <circle id="Eye1" cx="82" cy="22" r="6" fill-opacity="0.6" />
                        </g>
                        <g transform="matrix(1,0,0,1,12,6)">
                            <g id="Eyebrow-Outline-Default">
                                <g id="I-Browse">
                                    <path id="Eyebrow" d="M3.63,11.159C7.545,5.65 18.278,2.561 27.523,4.831C28.596,5.095 29.679,4.439 29.942,3.366C30.206,2.293 29.55,1.21 28.477,0.947C17.74,-1.69 5.312,1.887 0.37,8.841C-0.27,9.742 -0.059,10.99 0.841,11.63C1.742,12.27 2.99,12.059 3.63,11.159Z" fill-rule="nonzero" fill-opacity="0.6" />
                                    <g id="Eyebrow1" transform="matrix(-1,0,0,1,146,0)">
                                        <path d="M61.63,11.159C65.545,5.65 76.278,2.561 85.523,4.831C86.596,5.095 87.679,4.439 87.942,3.366C88.206,2.293 87.55,1.21 86.477,0.947C75.74,-1.69 63.312,1.887 58.37,8.841C57.73,9.742 57.941,10.99 58.841,11.63C59.742,12.27 60.99,12.059 61.63,11.159Z" fill-rule="nonzero" fill-opacity="0.6" />
                                    </g>
                                </g>
                            </g>
                        </g>
                    </g>
                    <g transform="matrix(1,0,0,1,-1,0)">
                        <g id="Top">
                            <g id="Top-Accessories-Winter-Hat-3">
                                <g id="hat" transform="matrix(1,0,0,1,67,12)">
                                    <circle id="puff" cx="66" cy="8" r="20" fill="rgb(244,244,244)" />
                                    <path id="hat-mask" d="M66,0C102.451,-0 132,29.549 132,66L132,71L0,71L0,66C-0,29.549 29.549,0 66,0Z" fill="rgb(40,47,51)" />
                                    <g id="Color-Palette-Gray-011">
                                    </g>
                                </g>
                                <g id="hat-front">
                                    <path id="react-path-51" d="M67.285,61.451C83.23,49.817 105.159,44 133.073,44C160.985,44 182.872,49.817 198.732,61.45L198.732,61.45C200.786,62.957 202,65.352 202,67.9L202,98.37C202,100.579 200.209,102.37 198,102.37C197.244,102.37 196.504,102.156 195.865,101.753C179.223,91.251 158.536,86 133.804,86C108.883,86 87.64,91.331 70.076,101.994C68.187,103.141 65.727,102.539 64.581,100.651C64.201,100.025 64,99.307 64,98.575L64,67.914C64,65.359 65.221,62.957 67.285,61.451Z" />
                                    <path id="react-path-511" d="M67.285,61.451C83.23,49.817 105.159,44 133.073,44C160.985,44 182.872,49.817 198.732,61.45L198.732,61.45C200.786,62.957 202,65.352 202,67.9L202,98.37C202,100.579 200.209,102.37 198,102.37C197.244,102.37 196.504,102.156 195.865,101.753C179.223,91.251 158.536,86 133.804,86C108.883,86 87.64,91.331 70.076,101.994C68.187,103.141 65.727,102.539 64.581,100.651C64.201,100.025 64,99.307 64,98.575L64,67.914C64,65.359 65.221,62.957 67.285,61.451Z" fill="rgb(244,244,244)" />
                                </g>
                            </g>
                        </g>
                    </g>
                </g>
            </g>
        </g>
    </g>
</svg>